<?xml version="1.0" encoding="UTF-8" standalone="no"?>
<svg width="300px" height="300px" viewBox="0 0 300 300" version="1.1" xmlns="http://www.w3.org/2000/svg" xmlns:xlink="http://www.w3.org/1999/xlink" xmlns:sketch="http://www.bohemiancoding.com/sketch/ns" fill="#4aacc5">
    <!-- Generator: Sketch 3.2 (9961) - http://www.bohemiancoding.com/sketch -->
    <title>Artboard 1</title>
    <desc>Created with Sketch.</desc>
    <defs></defs>
    <g id="Page-1" stroke="none" stroke-width="1" fill="none" fill-rule="evenodd" sketch:type="MSPage">
        <g id="Artboard-1" sketch:type="MSArtboardGroup" fill="#D8D8D8">
            <rect id="Rectangle-1" sketch:type="MSShapeGroup" x="77" y="66.0880863" width="114" height="5.0611837" rx="8"></rect>
            <rect id="Rectangle-2" sketch:type="MSShapeGroup" x="60" y="189.948071" width="114" height="5.0611837" rx="8"></rect>
            <rect id="Rectangle-3" sketch:type="MSShapeGroup" x="120" y="217.36412" width="114" height="5.0611837" rx="8"></rect>
            <rect id="Rectangle-4" sketch:type="MSShapeGroup" x="76" y="83.2961109" width="145" height="5.0611837" rx="8"></rect>
            <rect id="Rectangle-5" sketch:type="MSShapeGroup" x="108" y="36.7332209" width="39" height="5.0611837" rx="8"></rect>
            <rect id="Rectangle-6" sketch:type="MSShapeGroup" x="86" y="203.469408" width="98" height="5.0611837" rx="8"></rect>
            <rect id="Rectangle-7" sketch:type="MSShapeGroup" x="88" y="138.005842" width="88" height="5.0611837" rx="8"></rect>
            <rect id="Rectangle-8" sketch:type="MSShapeGroup" x="75" y="163.469408" width="88" height="5.0611837" rx="8"></rect>
            <rect id="Rectangle-9" sketch:type="MSShapeGroup" x="63" y="100.565319" width="170" height="5.0611837" rx="8"></rect>
            <rect id="Rectangle-10" sketch:type="MSShapeGroup" x="54" y="150" width="114" height="5.0611837" rx="8"></rect>
            <rect id="Rectangle-11" sketch:type="MSShapeGroup" x="73" y="126" width="114" height="5.0611837" rx="8"></rect>
            <rect id="Rectangle-13" sketch:type="MSShapeGroup" x="88" y="177.666626" width="80" height="5.0611837" rx="8"></rect>
            <rect id="Rectangle-14" sketch:type="MSShapeGroup" x="63" y="51.916772" width="114" height="5.0611837" rx="8"></rect>
            <polygon id="Star-1" sketch:type="MSShapeGroup" points="73 45.3372332 65.3587917 49.4036118 66.8181326 40.7908837 60.6362653 34.6913158 69.1793959 33.4347357 73 25.5986168 76.8206041 33.4347357 85.3637347 34.6913158 79.1818674 40.7908837 80.6412083 49.4036118 "></polygon>
            <circle id="Oval-1" sketch:type="MSShapeGroup" cx="211" cy="166" r="40"></circle>
            <rect id="Rectangle-12" sketch:type="MSShapeGroup" x="117" y="248.36412" width="114" height="5.0611837" rx="8"></rect>
            <rect id="Rectangle-15" sketch:type="MSShapeGroup" x="114" y="231.36412" width="114" height="5.0611837" rx="8"></rect>
        </g>
    </g>
</svg>